<?xml version="1.0" encoding="UTF-8" standalone="no"?>
<svg
   xmlns:dc="http://purl.org/dc/elements/1.1/"
   xmlns:cc="http://creativecommons.org/ns#"
   xmlns:rdf="http://www.w3.org/1999/02/22-rdf-syntax-ns#"
   xmlns:svg="http://www.w3.org/2000/svg"
   xmlns="http://www.w3.org/2000/svg"
   xmlns:sodipodi="http://sodipodi.sourceforge.net/DTD/sodipodi-0.dtd"
   xmlns:inkscape="http://www.inkscape.org/namespaces/inkscape"
   width="144"
   height="38"
   viewBox="0 0 38.100001 10.054167"
   version="1.1"
   id="svg928"
   inkscape:version="1.0.2-2 (e86c870879, 2021-01-15)"
   sodipodi:docname="bitzium_full.svg"
   inkscape:export-filename="C:\Users\ravi2\Desktop\bitziumUI\drawables\bitzium_full_144x38.png"
   inkscape:export-xdpi="16.904369"
   inkscape:export-ydpi="16.904369">
  <defs
     id="defs922">
    <rect
       x="-375.66971"
       y="173.46913"
       width="329.34894"
       height="113.2639"
       id="rect910" />
    <rect
       x="-375.66971"
       y="173.46913"
       width="329.34894"
       height="113.2639"
       id="rect1528" />
  </defs>
  <sodipodi:namedview
     id="base"
     pagecolor="#ffffff"
     bordercolor="#666666"
     borderopacity="1.0"
     inkscape:pageopacity="0.0"
     inkscape:pageshadow="2"
     inkscape:zoom="5.6"
     inkscape:cx="91.124891"
     inkscape:cy="-0.15542578"
     inkscape:document-units="px"
     inkscape:current-layer="layer1"
     inkscape:document-rotation="0"
     showgrid="false"
     inkscape:window-width="1920"
     inkscape:window-height="991"
     inkscape:window-x="-9"
     inkscape:window-y="-9"
     inkscape:window-maximized="1"
     inkscape:snap-bbox="true"
     inkscape:bbox-paths="true"
     inkscape:bbox-nodes="true"
     inkscape:snap-bbox-edge-midpoints="true"
     inkscape:snap-bbox-midpoints="true"
     inkscape:object-paths="true"
     inkscape:snap-intersection-paths="true"
     inkscape:snap-smooth-nodes="true"
     inkscape:snap-midpoints="true"
     inkscape:snap-object-midpoints="true"
     inkscape:snap-center="true"
     inkscape:snap-text-baseline="true"
     units="px" />
  <metadata
     id="metadata925">
    <rdf:RDF>
      <cc:Work
         rdf:about="">
        <dc:format>image/svg+xml</dc:format>
        <dc:type
           rdf:resource="http://purl.org/dc/dcmitype/StillImage" />
        <dc:title></dc:title>
      </cc:Work>
    </rdf:RDF>
  </metadata>
  <g
     inkscape:label="Layer 1"
     inkscape:groupmode="layer"
     id="layer1"
     transform="translate(151.72334,-189.73906)">
    <g
       id="g854"
       transform="matrix(0.17608718,0,0,0.17744713,-125.0068,156.07041)">
      <g
         transform="matrix(0,0.01106556,0.01106556,0,-155.16111,189.74736)"
         fill="#000000"
         stroke="none"
         id="g895"
         style="fill:#5599ff;fill-opacity:1">
        <path
           d="m 1530,4804 c -153,-41 -282,-179 -320,-343 -24,-102 4,-252 61,-332 l 20,-28 -367,-550 -366,-549 -73,5 c -134,10 -253,-35 -350,-132 -181,-180 -181,-450 0,-630 98,-99 221,-143 361,-131 l 72,6 362,-545 361,-545 -20,-28 c -57,-81 -85,-231 -61,-333 39,-167 167,-302 325,-343 199,-52 414,41 506,219 l 34,65 h 480 480 l 24,-52 c 30,-65 128,-164 194,-197 178,-86 368,-61 511,69 98,90 155,240 143,374 -6,67 -36,152 -68,198 l -20,28 363,549 363,549 81,-5 c 228,-16 422,122 480,340 63,238 -99,494 -344,546 -64,13 -136,14 -179,2 l -31,-9 -366,549 -367,550 20,28 c 86,120 91,305 14,453 -114,217 -370,297 -600,187 -65,-31 -164,-132 -194,-196 l -24,-53 h -480 -480 l -25,53 c -30,64 -128,164 -193,196 -106,51 -220,64 -327,35 z m 1518,-611 c 5,-16 27,-53 47,-83 l 38,-55 -189,-373 c -104,-204 -189,-377 -189,-383 0,-6 32,-23 70,-38 39,-15 96,-44 129,-65 32,-20 60,-36 61,-34 2,2 89,172 194,379 l 191,376 88,6 c 48,3 88,4 88,4 1,-1 164,-247 364,-546 l 362,-544 -28,-58 -29,-59 h -475 -475 v -150 -150 l 474,-2 475,-3 29,-56 30,-57 -364,-548 c -199,-302 -363,-550 -364,-551 0,0 -40,1 -88,4 l -88,6 -190,378 c -104,209 -191,379 -194,379 -2,0 -30,-16 -61,-36 -49,-31 -113,-61 -187,-87 -15,-6 9,-60 174,-389 l 191,-383 -37,-55 c -21,-30 -42,-67 -47,-82 l -10,-28 h -483 -483 l -10,27 c -5,16 -26,52 -46,82 -20,29 -36,57 -36,62 0,5 84,176 186,380 102,205 182,375 177,378 -4,4 -35,18 -68,31 -33,13 -89,41 -124,62 -34,21 -64,38 -65,38 0,0 -86,-170 -190,-379 l -189,-378 -86,-6 c -47,-3 -87,-2 -89,1 -1,4 -163,249 -360,546 l -358,538 30,59 31,59 h 465 465 v 150 150 l -464,2 -464,3 -28,50 c -16,28 -31,55 -35,62 -4,7 631,977 720,1100 0,0 40,-1 87,-4 l 86,-6 189,-378 c 104,-209 190,-379 190,-379 1,0 31,17 65,38 35,21 91,49 124,62 33,13 64,27 68,31 5,3 -75,173 -177,378 -102,204 -186,375 -186,380 0,5 16,33 36,62 20,30 41,66 46,82 l 10,27 h 483 483 z"
           id="path891"
           style="fill:#5599ff;fill-opacity:1" />
        <path
           d="m 2407,2989 c -223,-76 -350,-309 -292,-534 53,-202 225,-335 435,-335 211,0 382,132 435,335 47,184 -33,388 -193,489 -106,67 -268,86 -385,45 z"
           id="path893"
           style="fill:#5599ff;fill-opacity:1" />
      </g>
      <g
         aria-label="bitzium"
         transform="translate(282.68289,16.70569)"
         id="text908"
         style="font-size:50.8px;line-height:1.25;font-family:'Arial Rounded MT Bold';-inkscape-font-specification:'Arial Rounded MT Bold, ';white-space:pre;shape-inside:url(#rect910);fill:#003380;fill-opacity:1">
        <path
           d="m -368.20371,219.24759 h -4.14238 v -36.36367 h 4.46484 v 12.97285 q 2.82773,-3.54707 7.21816,-3.54707 2.43086,0 4.58887,0.99219 2.18281,0.96738 3.57188,2.75332 1.41386,1.76113 2.20761,4.2664 0.79375,2.50528 0.79375,5.35781 0,6.77168 -3.34863,10.46758 -3.34863,3.6959 -8.03672,3.6959 -4.66328,0 -7.31738,-3.89433 z m -0.0496,-13.36973 q 0,4.7377 1.28984,6.8461 2.1084,3.44785 5.70508,3.44785 2.92695,0 5.06016,-2.53008 2.1332,-2.55488 2.1332,-7.59024 0,-5.15937 -2.05879,-7.61503 -2.03398,-2.45567 -4.93613,-2.45567 -2.92695,0 -5.06016,2.55488 -2.1332,2.53008 -2.1332,7.34219 z"
           style="font-style:normal;font-variant:normal;font-weight:normal;font-stretch:normal;font-size:50.8px;font-family:Arial;-inkscape-font-specification:Arial;fill:#003380;fill-opacity:1"
           id="path1567" />
        <path
           d="m -344.04395,188.01849 v -5.13457 h 4.46485 v 5.13457 z m 0,31.2291 v -26.34258 h 4.46485 v 26.34258 z"
           style="font-style:normal;font-variant:normal;font-weight:normal;font-stretch:normal;font-size:50.8px;font-family:Arial;-inkscape-font-specification:Arial;fill:#003380;fill-opacity:1"
           id="path1569" />
        <path
           d="m -323.03437,215.25403 0.64492,3.94395 q -1.88516,0.39687 -3.37344,0.39687 -2.43086,0 -3.77031,-0.76894 -1.33945,-0.76895 -1.88516,-2.00918 -0.5457,-1.26504 -0.5457,-5.2834 v -15.15566 h -3.27422 v -3.47266 h 3.27422 v -6.52363 l 4.44004,-2.67891 v 9.20254 h 4.48965 v 3.47266 h -4.48965 v 15.40371 q 0,1.90996 0.22324,2.45566 0.24805,0.5457 0.76895,0.86817 0.5457,0.32246 1.53789,0.32246 0.74414,0 1.95957,-0.17364 z"
           style="font-style:normal;font-variant:normal;font-weight:normal;font-stretch:normal;font-size:50.8px;font-family:Arial;-inkscape-font-specification:Arial;fill:#003380;fill-opacity:1"
           id="path1571" />
        <path
           d="m -321.0252,219.24759 v -3.62149 l 16.76797,-19.24843 q -2.85254,0.14883 -5.03535,0.14883 h -10.74043 v -3.62149 h 21.53047 v 2.95176 l -14.2627,16.71836 -2.75332,3.05097 q 3.00137,-0.22324 5.63067,-0.22324 h 12.1791 v 3.84473 z"
           style="font-style:normal;font-variant:normal;font-weight:normal;font-stretch:normal;font-size:50.8px;font-family:Arial;-inkscape-font-specification:Arial;fill:#003380;fill-opacity:1"
           id="path1573" />
        <path
           d="m -293.24395,188.01849 v -5.13457 h 4.46485 v 5.13457 z m 0,31.2291 v -26.34258 h 4.46485 v 26.34258 z"
           style="font-style:normal;font-variant:normal;font-weight:normal;font-stretch:normal;font-size:50.8px;font-family:Arial;-inkscape-font-specification:Arial;fill:#003380;fill-opacity:1"
           id="path1575" />
        <path
           d="m -264.71856,219.24759 v -3.86953 q -3.07578,4.46484 -8.35918,4.46484 -2.33164,0 -4.36562,-0.89297 -2.00918,-0.89297 -3.00137,-2.23242 -0.96738,-1.36426 -1.36426,-3.32383 -0.27285,-1.31465 -0.27285,-4.16719 v -16.32148 h 4.46484 v 14.60996 q 0,3.49746 0.27286,4.71289 0.42168,1.76113 1.78593,2.77813 1.36426,0.99218 3.37344,0.99218 2.00918,0 3.77031,-1.01699 1.76114,-1.04179 2.48047,-2.80293 0.74414,-1.78593 0.74414,-5.15937 v -14.11387 h 4.46485 v 26.34258 z"
           style="font-style:normal;font-variant:normal;font-weight:normal;font-stretch:normal;font-size:50.8px;font-family:Arial;-inkscape-font-specification:Arial;fill:#003380;fill-opacity:1"
           id="path1577" />
        <path
           d="m -253.73008,219.24759 v -26.34258 h 3.99355 v 3.6959 q 1.24024,-1.93477 3.29903,-3.10059 2.05879,-1.19062 4.68808,-1.19062 2.92696,0 4.78731,1.21543 1.88516,1.21543 2.6541,3.39824 3.12539,-4.61367 8.13594,-4.61367 3.91914,0 6.02754,2.18281 2.1084,2.15801 2.1084,6.67246 v 18.08262 h -4.44004 v -16.59434 q 0,-2.6789 -0.44649,-3.84472 -0.42168,-1.19063 -1.56269,-1.90996 -1.14102,-0.71934 -2.67891,-0.71934 -2.77812,0 -4.61367,1.86035 -1.83555,1.83555 -1.83555,5.90352 v 15.30449 h -4.46484 v -17.11524 q 0,-2.97656 -1.09141,-4.46484 -1.0914,-1.48828 -3.57187,-1.48828 -1.88516,0 -3.49746,0.99219 -1.5875,0.99218 -2.30684,2.90215 -0.71934,1.90996 -0.71934,5.50664 v 13.66738 z"
           style="font-style:normal;font-variant:normal;font-weight:normal;font-stretch:normal;font-size:50.8px;font-family:Arial;-inkscape-font-specification:Arial;fill:#003380;fill-opacity:1"
           id="path1579" />
      </g>
    </g>
  </g>
</svg>
